<svg width="1024" height="1024" viewBox="0 0 1024 1024" fill="none" xmlns="http://www.w3.org/2000/svg">
  <path d="M286 530C286 384 394 258 540 254C649 252 744 326 777 430C806 522 782 633 713 708C658 767 576 802 489 798C384 794 290 727 249 628" stroke="#F3F3F6" stroke-width="76" stroke-linecap="round" stroke-linejoin="round" opacity="0.85"/>
  <path d="M322 318C402 300 626 300 702 318" stroke="#F3F3F6" stroke-width="90" stroke-linecap="round" stroke-linejoin="round"/>
  <path d="M696 334C646 387 603 440 553 495C497 559 451 615 402 672C375 703 348 730 320 752" stroke="#F3F3F6" stroke-width="90" stroke-linecap="round" stroke-linejoin="round"/>
  <path d="M312 726C403 748 628 748 716 726" stroke="#F3F3F6" stroke-width="90" stroke-linecap="round" stroke-linejoin="round"/>
</svg>
